# xmcd CD database file
#
# Track frame offsets:
#	150
#	21080
#	42011
#	62498
#
# Disc length: 948 seconds
#
# Revision: 0
# Processed by: cddbd v1.5.1PL0 Copyright (c) Steve Scherf et al.
# Submitted via: CDex 1.51
#
DISCID=2603b204
DTITLE=ころんぶす - petit
DYEAR=2005
DGENRE=Game
TTITLE0=だってわたしはノービス
TTITLE1=だってわたしはノービス（カラオケ）
TTITLE2=Ragnarok Title -Piano solo Version-
TTITLE3=CD-EXTRA
EXTD=YEAR: 2005
EXTT0=
EXTT1=
EXTT2=
EXTT3=
PLAYORDER=
